# xmcd CD database file
#
# Track frame offsets:
#	225
#	36027
#	80995
#	112162
#	151755
#	173860
#	190179
#
# Disc length: 2709 seconds
#
# Revision: 0
# Processed by: cddbd v1.5.2PL0 Copyright (c) Steve Scherf et al.
# Submitted via: CDex 1.51
#
DISCID=570a9207
DTITLE=Alan Skidmore - TCB
DYEAR=1970
DGENRE=Jazz
TTITLE0=Jack Knife
TTITLE1=Lantern Wood
TTITLE2=One On One Off
TTITLE3=TCB
TTITLE4=Walk in and Dance out
TTITLE5=AJ
TTITLE6=And Think Again
EXTD=YEAR: 1970
EXTT0=
EXTT1=
EXTT2=
EXTT3=
EXTT4=
EXTT5=
EXTT6=
PLAYORDER=
